<?xml version="1.0" ?>
<svg viewBox="0 0 32 32" xmlns="http://www.w3.org/2000/svg">
    <defs>
        <style>.cls-1{fill:#ffffff;}</style>
    </defs>
    <title/>
    <g data-name="pexels photo free" id="pexels_photo_free">
        <path
            class="cls-1"
            d="M12,23h5a1,1,0,0,0,1-1V19A5,5,0,0,0,18,9H12a1,1,0,0,0-1,1V22A1,1,0,0,0,12,23Zm1-12h5a3,3,0,0,1,0,6H17a1,1,0,0,0-1,1v3H13Z"/>
        <path
            class="cls-1"
            d="M23.2,3H13.6a1,1,0,0,0,0,2h9.6A3.8,3.8,0,0,1,27,8.8V23.2A3.8,3.8,0,0,1,23.2,27H8.8A3.8,3.8,0,0,1,5,23.2V8.8A3.8,3.8,0,0,1,8.8,5a1,1,0,0,0,0-2A5.8,5.8,0,0,0,3,8.8V23.2A5.8,5.8,0,0,0,8.8,29H23.2A5.8,5.8,0,0,0,29,23.2V8.8A5.8,5.8,0,0,0,23.2,3Z"/>
    </g>
</svg>
